<svg viewBox="0 0 200 200" xmlns="http://www.w3.org/2000/svg">
  <rect x="0" y="0" width="200" height="200" rx="44" ry="44" fill="#ffffff"/>
  <g transform="translate(-41.08,-31.68) scale(0.27568)">
    <path fill="#8d94a5" d="M352.86,216.03 C370.80,228.01 378.75,244.72 375.70,265.49 C372.53,287.00 359.34,300.75 338.38,306.48 C311.88,313.72 284.20,297.28 277.15,270.49 C270.41,244.88 286.36,217.68 312.20,210.47 C326.47,206.49 339.84,208.46 352.86,216.03 z"/>
    <path fill="#2b3b64" d="M751.31,258.98 C751.75,282.74 731.35,304.89 707.06,307.66 C672.84,311.56 644.18,280.87 651.88,247.65 C657.86,221.86 681.35,205.60 708.01,208.79 C732.44,211.72 751.04,233.07 751.31,258.98 z"/>
    <path fill="#2563eb" d="M351.47,467.41 C373.95,482.37 381.76,505.96 372.37,529.70 C365.02,548.27 345.08,560.82 323.83,560.24 C303.35,559.68 284.94,545.98 278.42,526.90 C271.65,507.12 278.91,484.16 293.74,472.13 C310.42,458.59 332.04,456.63 351.47,467.41 z"/>
    <path fill="#2563eb" d="M751.14,503.45 C753.10,526.90 744.13,544.17 723.63,554.90 C695.60,569.58 660.32,552.67 652.37,522.11 C646.75,500.51 658.51,467.44 692.63,461.02 C718.38,456.18 743.76,473.19 750.22,499.09 C750.54,500.38 750.79,501.69 751.14,503.45 z"/>
    <path fill="#60a5fa" d="M484.15,738.94 C471.46,729.36 463.95,716.75 463.34,701.46 C462.33,676.08 478.38,657.13 498.19,650.97 C527.04,642.00 555.86,658.96 562.59,688.87 C568.80,716.49 549.03,744.17 519.95,748.01 C507.12,749.70 495.14,746.66 484.15,738.94 z"/>
    <path fill="#2563eb" d="M621.47,653.46 C648.87,632.63 667.30,605.95 677.44,573.50 C679.66,566.43 684.86,562.67 690.52,564.30 C697.27,566.25 700.19,572.40 697.81,579.79 C679.63,636.23 642.77,674.91 587.35,695.93 C586.26,696.34 585.15,696.72 584.04,697.04 C577.88,698.81 572.14,696.05 570.28,690.45 C568.39,684.76 571.17,679.01 577.18,676.86 C589.61,672.42 601.48,666.84 612.54,659.61 C615.47,657.70 618.31,655.66 621.47,653.46 z"/>
    <path fill="#2563eb" d="M386.77,665.28 C358.58,642.01 340.14,612.71 329.30,578.41 C327.47,572.61 330.44,566.70 336.10,564.70 C341.69,562.72 347.32,565.44 349.51,571.77 C353.11,582.16 356.64,592.52 361.96,602.22 C381.49,637.82 410.86,661.81 448.56,676.07 C449.34,676.37 450.13,676.64 450.89,676.96 C457.17,679.63 459.98,685.40 457.76,691.04 C455.72,696.21 449.48,698.82 443.52,696.83 C425.19,690.73 408.49,681.52 393.00,670.05 C390.99,668.56 389.02,667.02 386.77,665.28 z"/>
    <path fill="#2563eb" d="M337.95,330.27 C337.96,366.06 337.98,401.38 337.96,436.70 C337.96,444.73 334.50,449.13 328.26,449.30 C322.88,449.45 319.00,446.29 318.20,440.94 C317.96,439.30 317.98,437.61 317.98,435.95 C317.97,400.46 317.96,364.97 317.98,329.48 C317.98,327.83 318.01,326.12 318.38,324.52 C319.39,320.10 323.29,317.07 327.80,317.00 C332.20,316.92 336.26,319.96 337.33,324.35 C337.76,326.11 337.75,327.98 337.95,330.27 z"/>
    <path fill="#2563eb" d="M711.95,328.43 C711.97,365.05 712.00,401.22 711.98,437.39 C711.97,444.58 708.42,448.99 702.61,449.31 C696.46,449.64 692.14,445.73 692.02,439.36 C691.88,431.53 691.99,423.69 691.99,415.86 C691.99,387.02 692.00,358.19 691.99,329.36 C691.99,325.05 692.50,321.06 696.70,318.52 C703.48,314.43 712.58,319.66 711.95,328.43 z"/>
  </g>
</svg>